<?xml version="1.0" encoding="UTF-8" standalone="no"?>
<!-- Created with Inkscape (http://www.inkscape.org/) -->

<svg
   xmlns:dc="http://purl.org/dc/elements/1.1/"
   xmlns:cc="http://creativecommons.org/ns#"
   xmlns:rdf="http://www.w3.org/1999/02/22-rdf-syntax-ns#"
   xmlns:svg="http://www.w3.org/2000/svg"
   xmlns="http://www.w3.org/2000/svg"
   xmlns:sodipodi="http://sodipodi.sourceforge.net/DTD/sodipodi-0.dtd"
   xmlns:inkscape="http://www.inkscape.org/namespaces/inkscape"
   width="2221.2292"
   height="554.28571"
   id="svg2"
   version="1.1"
   inkscape:version="0.48.3.1 r9886"
   sodipodi:docname="logo.svg">
  <defs
     id="defs4" />
  <sodipodi:namedview
     id="base"
     pagecolor="#ffffff"
     bordercolor="#666666"
     borderopacity="1.0"
     inkscape:pageopacity="0.0"
     inkscape:pageshadow="2"
     inkscape:zoom="0.175"
     inkscape:cx="651.49329"
     inkscape:cy="399.08048"
     inkscape:document-units="px"
     inkscape:current-layer="layer1"
     showgrid="false"
     inkscape:window-width="1920"
     inkscape:window-height="1036"
     inkscape:window-x="0"
     inkscape:window-y="22"
     inkscape:window-maximized="1"
     fit-margin-top="0"
     fit-margin-left="0"
     fit-margin-right="0"
     fit-margin-bottom="0" />
  <metadata
     id="metadata7">
    <rdf:RDF>
      <cc:Work
         rdf:about="">
        <dc:format>image/svg+xml</dc:format>
        <dc:type
           rdf:resource="http://purl.org/dc/dcmitype/StillImage" />
        <dc:title></dc:title>
      </cc:Work>
    </rdf:RDF>
  </metadata>
  <g
     inkscape:label="Layer 1"
     inkscape:groupmode="layer"
     id="layer1"
     transform="translate(-817.04372,-19.399607)">
    <g
       id="g4558"
       transform="translate(0,-71.309947)">
      <path
         transform="translate(1147.758,-225.22407)"
         d="m 218.57142,593.07648 c 0,150.30034 -121.842503,272.14285 -272.14285,272.14285 -150.30035,0 -272.14285,-121.84251 -272.14285,-272.14285 0,-150.30035 121.8425,-272.14286 272.14285,-272.14286 150.300347,0 272.14285,121.84251 272.14285,272.14286 z"
         sodipodi:ry="272.14285"
         sodipodi:rx="272.14285"
         sodipodi:cy="593.07648"
         sodipodi:cx="-53.57143"
         id="path4384"
         style="fill:#2b2b2b;fill-opacity:1;stroke:#53d07c;stroke-width:10;stroke-miterlimit:4;stroke-opacity:1;stroke-dasharray:none"
         sodipodi:type="arc" />
      <g
         transform="translate(882.32819,40.207104)"
         style="stroke:#ffffff;stroke-opacity:1"
         id="g4342">
        <path
           style="fill:none;stroke:#ffffff;stroke-width:4;stroke-linecap:butt;stroke-linejoin:miter;stroke-miterlimit:4;stroke-opacity:1;stroke-dasharray:none"
           d="m 327.03689,174.32479 c 6.7983,38.66173 -9.32924,43.86445 -34.34519,66.08959"
           id="path3839-5-8-8-2"
           inkscape:connector-curvature="0"
           sodipodi:nodetypes="cc" />
        <path
           style="fill:none;stroke:#ffffff;stroke-width:4;stroke-linecap:butt;stroke-linejoin:miter;stroke-miterlimit:4;stroke-opacity:1;stroke-dasharray:none"
           d="m 401.2831,325.34259 c -25.59298,32.62229 -70.88034,-6.89046 -107.07617,14.06673"
           id="path3839-5-8-8-0-4"
           inkscape:connector-curvature="0"
           sodipodi:nodetypes="cc" />
        <path
           style="fill:none;stroke:#ffffff;stroke-width:4;stroke-linecap:butt;stroke-linejoin:miter;stroke-miterlimit:4;stroke-opacity:1;stroke-dasharray:none"
           d="m 387.14096,251.09638 c 2.97845,34.05086 -56.7382,67.35575 -92.93403,88.31294"
           id="path3839-5-8-8-0"
           inkscape:connector-curvature="0"
           sodipodi:nodetypes="cc" />
        <path
           style="fill:none;stroke:#ffffff;stroke-width:4;stroke-linecap:butt;stroke-linejoin:miter;stroke-miterlimit:4;stroke-opacity:1;stroke-dasharray:none"
           d="m 292.19407,239.89179 c -38.48317,26.55633 -80.30713,60.72434 -80.30713,104.47539"
           id="path3839-5-8-8"
           inkscape:connector-curvature="0"
           sodipodi:nodetypes="cc" />
        <path
           style="fill:none;stroke:#ffffff;stroke-width:4;stroke-linecap:butt;stroke-linejoin:miter;stroke-miterlimit:4;stroke-opacity:1;stroke-dasharray:none"
           d="m 292.94424,337.88592 c -86.71108,52.37795 -65.92393,48.74034 -81.31728,168.90724"
           id="path3839"
           inkscape:connector-curvature="0"
           sodipodi:nodetypes="cc" />
        <path
           style="fill:none;stroke:#ffffff;stroke-width:4;stroke-linecap:butt;stroke-linejoin:miter;stroke-miterlimit:4;stroke-opacity:1;stroke-dasharray:none"
           d="m 211.62696,337.88592 0,168.90724"
           id="path3839-5"
           inkscape:connector-curvature="0"
           sodipodi:nodetypes="cc" />
        <path
           style="fill:none;stroke:#ffffff;stroke-width:4;stroke-linecap:butt;stroke-linejoin:miter;stroke-miterlimit:4;stroke-opacity:1;stroke-dasharray:none"
           d="m 211.88694,204.03137 0,140.33581"
           id="path3839-5-8"
           inkscape:connector-curvature="0"
           sodipodi:nodetypes="cc" />
        <path
           style="fill:none;stroke:#ffffff;stroke-width:4;stroke-linecap:butt;stroke-linejoin:miter;stroke-miterlimit:4;stroke-opacity:1;stroke-dasharray:none"
           d="m 211.88694,141.65856 0,75.69295"
           id="path3839-5-8-5"
           inkscape:connector-curvature="0"
           sodipodi:nodetypes="cc" />
        <path
           style="fill:none;stroke:#ffffff;stroke-width:4;stroke-linecap:butt;stroke-linejoin:miter;stroke-miterlimit:4;stroke-opacity:1;stroke-dasharray:none"
           d="m 96.67983,174.32479 c -6.7983,38.66173 9.32924,43.86445 34.34519,66.08959"
           id="path3839-5-8-8-2-0"
           inkscape:connector-curvature="0"
           sodipodi:nodetypes="cc" />
        <path
           style="fill:none;stroke:#ffffff;stroke-width:4;stroke-linecap:butt;stroke-linejoin:miter;stroke-miterlimit:4;stroke-opacity:1;stroke-dasharray:none"
           d="m 22.43362,325.34259 c 25.59298,32.62229 70.88034,-6.89046 107.07617,14.06673"
           id="path3839-5-8-8-0-4-3"
           inkscape:connector-curvature="0"
           sodipodi:nodetypes="cc" />
        <path
           style="fill:none;stroke:#ffffff;stroke-width:4;stroke-linecap:butt;stroke-linejoin:miter;stroke-miterlimit:4;stroke-opacity:1;stroke-dasharray:none"
           d="m 36.57576,251.09638 c -2.97845,34.05086 56.7382,67.35575 92.93403,88.31294"
           id="path3839-5-8-8-0-9"
           inkscape:connector-curvature="0"
           sodipodi:nodetypes="cc" />
        <path
           style="fill:none;stroke:#ffffff;stroke-width:4;stroke-linecap:butt;stroke-linejoin:miter;stroke-miterlimit:4;stroke-opacity:1;stroke-dasharray:none"
           d="m 131.52265,239.89179 c 38.48317,26.55633 80.30713,60.72434 80.30713,104.47539"
           id="path3839-5-8-8-9"
           inkscape:connector-curvature="0"
           sodipodi:nodetypes="cc" />
        <path
           style="fill:none;stroke:#ffffff;stroke-width:4;stroke-linecap:butt;stroke-linejoin:miter;stroke-miterlimit:4;stroke-opacity:1;stroke-dasharray:none"
           d="m 130.77248,337.88592 c 86.71108,52.37795 65.92393,48.74034 81.31728,168.90724"
           id="path3839-6"
           inkscape:connector-curvature="0"
           sodipodi:nodetypes="cc" />
      </g>
      <g
         transform="translate(882.32819,40.207104)"
         id="g4357">
        <path
           transform="translate(184.95658,102.95991)"
           sodipodi:type="arc"
           style="fill:#ffffff;fill-opacity:1;stroke:#53d07c;stroke-width:5.19999981;stroke-miterlimit:4;stroke-opacity:1;stroke-dasharray:none"
           id="path2985-9"
           sodipodi:cx="107.85714"
           sodipodi:cy="235.93361"
           sodipodi:rx="16.428572"
           sodipodi:ry="16.428572"
           d="m 124.28571,235.93361 c 0,9.07325 -7.35532,16.42857 -16.42857,16.42857 -9.07325,0 -16.428572,-7.35532 -16.428572,-16.42857 0,-9.07325 7.355322,-16.42857 16.428572,-16.42857 9.07325,0 16.42857,7.35532 16.42857,16.42857 z" />
        <g
           transform="translate(189.65802,-13.327564)"
           id="g3862-0-6">
          <path
             d="m 124.28571,235.93361 c 0,9.07325 -7.35532,16.42857 -16.42857,16.42857 -9.07325,0 -16.428572,-7.35532 -16.428572,-16.42857 0,-9.07325 7.355322,-16.42857 16.428572,-16.42857 9.07325,0 16.42857,7.35532 16.42857,16.42857 z"
             sodipodi:ry="16.428572"
             sodipodi:rx="16.428572"
             sodipodi:cy="235.93361"
             sodipodi:cx="107.85714"
             id="path2985-7-2-6"
             style="fill:#ffffff;fill-opacity:1;stroke:#53d07c;stroke-width:5.19999981;stroke-miterlimit:4;stroke-opacity:1;stroke-dasharray:none"
             sodipodi:type="arc"
             transform="translate(104.0298,102.95991)" />
        </g>
        <g
           transform="translate(175.01082,-86.617994)"
           id="g3862-0-2">
          <path
             d="m 124.28571,235.93361 c 0,9.07325 -7.35532,16.42857 -16.42857,16.42857 -9.07325,0 -16.428572,-7.35532 -16.428572,-16.42857 0,-9.07325 7.355322,-16.42857 16.428572,-16.42857 9.07325,0 16.42857,7.35532 16.42857,16.42857 z"
             sodipodi:ry="16.428572"
             sodipodi:rx="16.428572"
             sodipodi:cy="235.93361"
             sodipodi:cx="107.85714"
             id="path2985-7-2-4"
             style="fill:#ffffff;fill-opacity:1;stroke:#53d07c;stroke-width:5.19999981;stroke-miterlimit:4;stroke-opacity:1;stroke-dasharray:none"
             sodipodi:type="arc"
             transform="translate(104.0298,102.95991)" />
        </g>
        <g
           transform="translate(80.92678,-99.38848)"
           id="g3862-0-5">
          <path
             d="m 124.28571,235.93361 c 0,9.07325 -7.35532,16.42857 -16.42857,16.42857 -9.07325,0 -16.428572,-7.35532 -16.428572,-16.42857 0,-9.07325 7.355322,-16.42857 16.428572,-16.42857 9.07325,0 16.42857,7.35532 16.42857,16.42857 z"
             sodipodi:ry="16.428572"
             sodipodi:rx="16.428572"
             sodipodi:cy="235.93361"
             sodipodi:cx="107.85714"
             id="path2985-7-2-8"
             style="fill:#ffffff;fill-opacity:1;stroke:#53d07c;stroke-width:5.19999981;stroke-miterlimit:4;stroke-opacity:1;stroke-dasharray:none"
             sodipodi:type="arc"
             transform="translate(104.0298,102.95991)" />
        </g>
        <g
           transform="translate(115.761,-164.00595)"
           id="g3862-0-3">
          <path
             d="m 124.28571,235.93361 c 0,9.07325 -7.35532,16.42857 -16.42857,16.42857 -9.07325,0 -16.428572,-7.35532 -16.428572,-16.42857 0,-9.07325 7.355322,-16.42857 16.428572,-16.42857 9.07325,0 16.42857,7.35532 16.42857,16.42857 z"
             sodipodi:ry="16.428572"
             sodipodi:rx="16.428572"
             sodipodi:cy="235.93361"
             sodipodi:cx="107.85714"
             id="path2985-7-2-7"
             style="fill:#ffffff;fill-opacity:1;stroke:#53d07c;stroke-width:5.19999981;stroke-miterlimit:4;stroke-opacity:1;stroke-dasharray:none"
             sodipodi:type="arc"
             transform="translate(104.0298,102.95991)" />
        </g>
        <path
           transform="matrix(-1,0,0,1,238.76014,102.95991)"
           sodipodi:type="arc"
           style="fill:#ffffff;fill-opacity:1;stroke:#53d07c;stroke-width:5.19999981;stroke-miterlimit:4;stroke-opacity:1;stroke-dasharray:none"
           id="path2985-9-2"
           sodipodi:cx="107.85714"
           sodipodi:cy="235.93361"
           sodipodi:rx="16.428572"
           sodipodi:ry="16.428572"
           d="m 124.28571,235.93361 c 0,9.07325 -7.35532,16.42857 -16.42857,16.42857 -9.07325,0 -16.428572,-7.35532 -16.428572,-16.42857 0,-9.07325 7.355322,-16.42857 16.428572,-16.42857 9.07325,0 16.42857,7.35532 16.42857,16.42857 z" />
        <g
           transform="matrix(-1,0,0,1,234.0587,-13.327564)"
           id="g3862-0-6-9">
          <path
             d="m 124.28571,235.93361 c 0,9.07325 -7.35532,16.42857 -16.42857,16.42857 -9.07325,0 -16.428572,-7.35532 -16.428572,-16.42857 0,-9.07325 7.355322,-16.42857 16.428572,-16.42857 9.07325,0 16.42857,7.35532 16.42857,16.42857 z"
             sodipodi:ry="16.428572"
             sodipodi:rx="16.428572"
             sodipodi:cy="235.93361"
             sodipodi:cx="107.85714"
             id="path2985-7-2-6-0"
             style="fill:#ffffff;fill-opacity:1;stroke:#53d07c;stroke-width:5.19999981;stroke-miterlimit:4;stroke-opacity:1;stroke-dasharray:none"
             sodipodi:type="arc"
             transform="translate(104.0298,102.95991)" />
        </g>
        <g
           transform="matrix(-1,0,0,1,248.7059,-86.617994)"
           id="g3862-0-2-4">
          <path
             d="m 124.28571,235.93361 c 0,9.07325 -7.35532,16.42857 -16.42857,16.42857 -9.07325,0 -16.428572,-7.35532 -16.428572,-16.42857 0,-9.07325 7.355322,-16.42857 16.428572,-16.42857 9.07325,0 16.42857,7.35532 16.42857,16.42857 z"
             sodipodi:ry="16.428572"
             sodipodi:rx="16.428572"
             sodipodi:cy="235.93361"
             sodipodi:cx="107.85714"
             id="path2985-7-2-4-6"
             style="fill:#ffffff;fill-opacity:1;stroke:#53d07c;stroke-width:5.19999981;stroke-miterlimit:4;stroke-opacity:1;stroke-dasharray:none"
             sodipodi:type="arc"
             transform="translate(104.0298,102.95991)" />
        </g>
        <g
           transform="matrix(-1,0,0,1,342.78994,-99.38848)"
           id="g3862-0-5-9">
          <path
             d="m 124.28571,235.93361 c 0,9.07325 -7.35532,16.42857 -16.42857,16.42857 -9.07325,0 -16.428572,-7.35532 -16.428572,-16.42857 0,-9.07325 7.355322,-16.42857 16.428572,-16.42857 9.07325,0 16.42857,7.35532 16.42857,16.42857 z"
             sodipodi:ry="16.428572"
             sodipodi:rx="16.428572"
             sodipodi:cy="235.93361"
             sodipodi:cx="107.85714"
             id="path2985-7-2-8-8"
             style="fill:#ffffff;fill-opacity:1;stroke:#53d07c;stroke-width:5.19999981;stroke-miterlimit:4;stroke-opacity:1;stroke-dasharray:none"
             sodipodi:type="arc"
             transform="translate(104.0298,102.95991)" />
        </g>
        <g
           transform="matrix(-1,0,0,1,307.95572,-164.00595)"
           id="g3862-0-3-0">
          <path
             d="m 124.28571,235.93361 c 0,9.07325 -7.35532,16.42857 -16.42857,16.42857 -9.07325,0 -16.428572,-7.35532 -16.428572,-16.42857 0,-9.07325 7.355322,-16.42857 16.428572,-16.42857 9.07325,0 16.42857,7.35532 16.42857,16.42857 z"
             sodipodi:ry="16.428572"
             sodipodi:rx="16.428572"
             sodipodi:cy="235.93361"
             sodipodi:cx="107.85714"
             id="path2985-7-2-7-4"
             style="fill:#ffffff;fill-opacity:1;stroke:#53d07c;stroke-width:5.19999981;stroke-miterlimit:4;stroke-opacity:1;stroke-dasharray:none"
             sodipodi:type="arc"
             transform="translate(104.0298,102.95991)" />
        </g>
        <path
           transform="translate(104.02979,269.85195)"
           sodipodi:type="arc"
           style="fill:#ffffff;fill-opacity:1;stroke:#53d07c;stroke-width:5.19999981;stroke-miterlimit:4;stroke-opacity:1;stroke-dasharray:none"
           id="path2985-2"
           sodipodi:cx="107.85714"
           sodipodi:cy="235.93361"
           sodipodi:rx="16.428572"
           sodipodi:ry="16.428572"
           d="m 124.28571,235.93361 c 0,9.07325 -7.35532,16.42857 -16.42857,16.42857 -9.07325,0 -16.428572,-7.35532 -16.428572,-16.42857 0,-9.07325 7.355322,-16.42857 16.428572,-16.42857 9.07325,0 16.42857,7.35532 16.42857,16.42857 z" />
        <g
           id="g3862">
          <path
             d="m 124.28571,235.93361 c 0,9.07325 -7.35532,16.42857 -16.42857,16.42857 -9.07325,0 -16.428572,-7.35532 -16.428572,-16.42857 0,-9.07325 7.355322,-16.42857 16.428572,-16.42857 9.07325,0 16.42857,7.35532 16.42857,16.42857 z"
             sodipodi:ry="16.428572"
             sodipodi:rx="16.428572"
             sodipodi:cy="235.93361"
             sodipodi:cx="107.85714"
             id="path2985-7"
             style="fill:#ffffff;fill-opacity:1;stroke:#53d07c;stroke-width:5.19999981;stroke-miterlimit:4;stroke-opacity:1;stroke-dasharray:none"
             sodipodi:type="arc"
             transform="translate(104.0298,102.95991)" />
        </g>
        <g
           transform="translate(0,-129.38848)"
           id="g3862-0-26">
          <path
             d="m 124.28571,235.93361 c 0,9.07325 -7.35532,16.42857 -16.42857,16.42857 -9.07325,0 -16.428572,-7.35532 -16.428572,-16.42857 0,-9.07325 7.355322,-16.42857 16.428572,-16.42857 9.07325,0 16.42857,7.35532 16.42857,16.42857 z"
             sodipodi:ry="16.428572"
             sodipodi:rx="16.428572"
             sodipodi:cy="235.93361"
             sodipodi:cx="107.85714"
             id="path2985-7-2-1"
             style="fill:#ffffff;fill-opacity:1;stroke:#53d07c;stroke-width:5.19999981;stroke-miterlimit:4;stroke-opacity:1;stroke-dasharray:none"
             sodipodi:type="arc"
             transform="translate(104.0298,102.95991)" />
        </g>
        <g
           transform="translate(0,-189.38848)"
           id="g3862-0-04">
          <path
             d="m 124.28571,235.93361 c 0,9.07325 -7.35532,16.42857 -16.42857,16.42857 -9.07325,0 -16.428572,-7.35532 -16.428572,-16.42857 0,-9.07325 7.355322,-16.42857 16.428572,-16.42857 9.07325,0 16.42857,7.35532 16.42857,16.42857 z"
             sodipodi:ry="16.428572"
             sodipodi:rx="16.428572"
             sodipodi:cy="235.93361"
             sodipodi:cx="107.85714"
             id="path2985-7-2-0"
             style="fill:#ffffff;fill-opacity:1;stroke:#53d07c;stroke-width:5.19999981;stroke-miterlimit:4;stroke-opacity:1;stroke-dasharray:none"
             sodipodi:type="arc"
             transform="translate(104.0298,102.95991)" />
        </g>
      </g>
    </g>
    <text
       xml:space="preserve"
       style="font-size:58.20261765px;font-style:normal;font-weight:normal;line-height:125%;letter-spacing:0px;word-spacing:0px;fill:#676767;fill-opacity:1;stroke:none;font-family:Sans"
       x="1477.63"
       y="452.45755"
       id="text4472"
       sodipodi:linespacing="125%"><tspan
         sodipodi:role="line"
         id="tspan4474"
         x="1477.63"
         y="452.45755"
         style="font-size:436.5196228px;font-style:normal;font-variant:normal;font-weight:300;font-stretch:normal;text-align:start;line-height:125%;writing-mode:lr-tb;text-anchor:start;fill:#676767;fill-opacity:1;stroke:none;font-family:Open Sans;-inkscape-font-specification:Open Sans Light">RESTree</tspan></text>
  </g>
</svg>
